<mxfile host="app.diagrams.net" modified="2022-03-05T14:20:18.033Z" agent="5.0 (Windows NT 10.0; Win64; x64) AppleWebKit/537.36 (KHTML, like Gecko) Chrome/99.0.4844.51 Safari/537.36" etag="MF4PMnmxyZKAdeYnHqtt" version="16.6.6" type="github">
  <diagram id="3rrNEJuNn2fgoICT4_Uo" name="Page-1">
    <mxGraphModel dx="1038" dy="556" grid="1" gridSize="10" guides="1" tooltips="1" connect="1" arrows="1" fold="1" page="1" pageScale="1" pageWidth="827" pageHeight="1169" math="0" shadow="0">
      <root>
        <mxCell id="0" />
        <mxCell id="1" parent="0" />
        <mxCell id="_kphLWcupZBuikPtvwWr-1" value="Game" style="ellipse;whiteSpace=wrap;html=1;" vertex="1" parent="1">
          <mxGeometry x="300" y="110" width="120" height="80" as="geometry" />
        </mxCell>
        <mxCell id="_kphLWcupZBuikPtvwWr-2" value="snake" style="ellipse;whiteSpace=wrap;html=1;" vertex="1" parent="1">
          <mxGeometry x="260" y="260" width="120" height="80" as="geometry" />
        </mxCell>
        <mxCell id="_kphLWcupZBuikPtvwWr-3" value="food&lt;span style=&quot;white-space: pre&quot;&gt;	&lt;/span&gt;" style="ellipse;whiteSpace=wrap;html=1;" vertex="1" parent="1">
          <mxGeometry x="80" y="250" width="120" height="80" as="geometry" />
        </mxCell>
        <mxCell id="_kphLWcupZBuikPtvwWr-4" value="snakes = [ ]" style="ellipse;whiteSpace=wrap;html=1;" vertex="1" parent="1">
          <mxGeometry x="430" y="260" width="120" height="80" as="geometry" />
        </mxCell>
        <mxCell id="_kphLWcupZBuikPtvwWr-5" value="map" style="ellipse;whiteSpace=wrap;html=1;" vertex="1" parent="1">
          <mxGeometry x="620" y="250" width="120" height="80" as="geometry" />
        </mxCell>
      </root>
    </mxGraphModel>
  </diagram>
</mxfile>
